<svg xmlns="http://www.w3.org/2000/svg" viewBox="0 0 216.39 329.38"><defs><style>.cls-1{fill:#fff;}</style></defs><title>monkeylab - INFOS AND WHITE LOGO ONLY</title><g id="text"><path class="cls-1" d="M40.12,70.47a5,5,0,0,1,.43-.35,7.73,7.73,0,0,0-3.33-.74,7.9,7.9,0,1,0,7.89,7.89v-.16a4.66,4.66,0,0,1-.5.25,2.78,2.78,0,0,1-.51.17,4,4,0,0,1-1.1.15,4.18,4.18,0,0,1-4.18-4.18,4.12,4.12,0,0,1,.94-2.63A4.48,4.48,0,0,1,40.12,70.47Z"/><path class="cls-1" d="M84.26,70.52a2.79,2.79,0,0,1,.42-.35,7.75,7.75,0,0,0-3.43-.79,7.9,7.9,0,1,0,7.9,7.89V77.2a3.74,3.74,0,0,1-.51.22,2.15,2.15,0,0,1-.51.15,4.08,4.08,0,0,1-.93.11A4.18,4.18,0,0,1,83,73.5a4.22,4.22,0,0,1,.89-2.59Z"/><path class="cls-1" d="M17.69,97.57l.68,0-.18-.65a116.37,116.37,0,0,1-4-34.9l0-.68-.66.18a18.34,18.34,0,0,0,4.16,36Z"/><path class="cls-1" d="M40,104.3l1.89.44a13.37,13.37,0,0,1,9.92,8.65,2.62,2.62,0,0,0,.71,1,2.8,2.8,0,0,0,1.87.67h.23a2.82,2.82,0,0,0,1.86-.66,2.53,2.53,0,0,0,.72-1,13.39,13.39,0,0,1,9.92-8.62L69,104.3l-1.87-.52a12.51,12.51,0,0,0-3.4-.47,11.66,11.66,0,0,0-9.24,4.31,11.6,11.6,0,0,0-9.23-4.31,12.51,12.51,0,0,0-3.4.47Z"/><path class="cls-1" d="M137.76,71.81a16.77,16.77,0,0,1,8.56,31.2l-1.93,1.15,2.24-.22a17.78,17.78,0,1,0-10.88-33l-1.94,1.16,2.25-.23A16.13,16.13,0,0,1,137.76,71.81Z"/><path class="cls-1" d="M165.8,99.11l-.38-.43-.37.44A24.14,24.14,0,0,1,122.76,87.9a24.22,24.22,0,0,1,2.79-16.18,23.51,23.51,0,0,1,2.85-4,22.52,22.52,0,0,1,3.42-3.2l.15-.12,0-.21a56.36,56.36,0,0,0-20.51-51.71c-.63-.52-1.29-1-1.93-1.5A56.42,56.42,0,0,0,23.82,35.25a55.23,55.23,0,0,0-3.52,13h0l-.26,2,1-.79,1-.79a25.91,25.91,0,0,1,8.36-1.61c.25,0,.49,0,.74,0A26.07,26.07,0,0,1,55.13,63l.46,1.09L56.05,63a26.09,26.09,0,0,1,49.62,5,26.9,26.9,0,0,1,.5,5.11,26.1,26.1,0,0,1-15.73,24l-.46.2.21.46a32.28,32.28,0,0,1,2.71,11.88c0,.42,0,.84,0,1.27a34.16,34.16,0,0,1-.5,5.77c0,.14,0,.29-.09.44a32.77,32.77,0,0,1-61.71,8L30.08,124l-.38,1.24a35.09,35.09,0,0,0,12,37.44,64.76,64.76,0,0,0-2.31,17.18,65.59,65.59,0,0,0,.86,10.55,1.29,1.29,0,0,0,0,.19l.5-.07-.47.17,0,.19c1.29,9.22,2.4,17.88,3.14,24.39,1.23,10.68.93,17.76-13.52,25.94a43.06,43.06,0,0,0-4.29,2.25l0,0a30.61,30.61,0,0,0-3.74,2.11,7.6,7.6,0,0,0-2,1.81h-.24v.27a45.81,45.81,0,0,0-4.18,3.84A47.47,47.47,0,0,0,12,313.12h0a48.07,48.07,0,0,0,16.25,13.56h0a7.65,7.65,0,0,1,.92.85L55.85,288.4l29.32-43V162.69H81.88a4.22,4.22,0,0,1-4.21-4.21V154a4.22,4.22,0,0,1,4.21-4.21h53.71A4.22,4.22,0,0,1,139.8,154v4.44a4.22,4.22,0,0,1-4.21,4.21h-3.84v82.74l29.33,43,28,41a223.54,223.54,0,0,0,12.4-24,191.56,191.56,0,0,0,9.48-29,196.06,196.06,0,0,0,5.47-46.06A195,195,0,0,0,165.8,99.11ZM18,318.32c.15.11.28.22.41.33l1.47,1.16c.64.52,1.28,1,1.95,1.54l1.51,1.14c.43.34.87.68,1.32,1A48.15,48.15,0,0,1,18,318.32Z"/></g></svg>